# Blender v2.82 (sub 7) OBJ File: 'fighter.blend'
# www.blender.org
o Plane
v -0.700000 0.100000 -2.600000
v -0.200000 0.100000 -4.000000
v -0.500000 0.200000 -2.000000
v -0.600000 0.200000 -1.400000
v -0.600000 0.200000 -0.300000
v -1.500000 0.000000 -1.600000
v -2.000000 0.000000 -1.200000
v -0.700000 0.300000 -1.500000
v -0.600000 0.300000 -0.300000
v -1.400000 0.100000 -1.600000
v -0.200000 0.300000 -3.000000
v -0.500000 0.600000 -1.500000
v -0.300000 0.500000 -0.300000
v -0.500000 0.600000 -0.900000
v -0.600000 0.900000 -0.300000
v -0.600000 0.900000 -0.600000
v -0.400000 0.600000 -0.900000
v -1.700000 0.000000 -2.100000
v -1.400000 0.000000 -2.100000
v -0.300000 0.100000 0.000000
v -0.500000 0.300000 0.000000
v -0.100000 0.300000 0.000000
v -0.300000 0.500000 0.000000
v -0.400000 0.500000 -0.300000
v 0.000000 0.000000 -3.000000
v 0.700000 0.100000 -2.600000
v 0.000000 0.100000 -4.000000
v 0.200000 0.100000 -4.000000
v 0.000000 0.000000 -2.100000
v 0.500000 0.200000 -2.000000
v 0.000000 0.000000 -1.400000
v 0.600000 0.200000 -1.400000
v 0.000000 0.100000 -0.300000
v 0.600000 0.200000 -0.300000
v 1.500000 0.000000 -1.600000
v 2.000000 0.000000 -1.200000
v 0.000000 0.200000 -3.700000
v 0.000000 0.400000 -3.300000
v 0.000000 0.400000 -2.500000
v 0.000000 0.500000 -1.500000
v 0.700000 0.300000 -1.500000
v 0.000000 0.400000 -0.200000
v 0.600000 0.300000 -0.300000
v 1.400000 0.100000 -1.600000
v 0.200000 0.300000 -3.000000
v 0.500000 0.600000 -1.500000
v 0.300000 0.500000 -0.300000
v 0.500000 0.600000 -0.900000
v 0.600000 0.900000 -0.300000
v 0.600000 0.900000 -0.600000
v 0.400000 0.600000 -0.900000
v 0.000000 0.500000 -0.900000
v 1.700000 0.000000 -2.100000
v 1.400000 0.000000 -2.100000
v 0.300000 0.100000 0.000000
v 0.500000 0.300000 0.000000
v 0.000000 0.300000 -0.200000
v 0.100000 0.300000 0.000000
v 0.300000 0.500000 0.000000
v 0.400000 0.500000 -0.300000
vt 0.375000 0.257812
vt 0.320312 0.000000
vt 0.375000 0.000000
vt 0.375000 0.625000
vt 0.250000 0.507812
vt 0.375000 0.476562
vt 0.296875 1.000000
vt 0.375000 0.921875
vt 0.187500 0.351562
vt 0.054688 0.250000
vt 0.000000 0.171875
vt 0.000000 0.070312
vt 1.000000 0.718750
vt 0.804688 0.695312
vt 0.835938 0.687500
vt 0.187500 1.000000
vt 0.187500 0.921875
vt 0.375000 1.000000
vt 0.367188 0.945312
vt 0.000000 0.375000
vt 0.054688 0.000000
vt 0.000000 0.000000
vt 0.187500 0.625000
vt 0.187500 0.625000
vt 0.765625 0.562500
vt 0.835938 0.562500
vt 1.000000 0.718750
vt 1.000000 1.000000
vt 0.125000 0.500000
vt 0.000000 0.625000
vt 0.562500 0.312500
vt 0.500000 0.375000
vt 0.375000 0.312500
vt 0.000000 0.921875
vt 0.000000 1.000000
vt 0.000000 0.945312
vt 0.187500 0.921875
vt 0.101562 0.921875
vt 0.125000 0.781250
vt 0.125000 0.625000
vt 0.468750 0.492188
vt 0.375000 0.562500
vt 0.375000 0.398438
vt 0.101562 0.781250
vt 0.000000 0.781250
vt 0.468750 0.562500
vt 0.375000 0.554688
vt 0.375000 0.398438
vt 0.078125 1.000000
vt 0.695312 0.796875
vt 0.539062 0.687500
vt 0.609375 0.562500
vt 0.679688 0.796875
vt 0.078125 0.921875
vt 0.562500 0.500000
vt 0.687500 0.500000
vt 0.625000 0.562500
vt 0.625000 0.437500
vt 0.562500 0.562500
vt 0.562500 0.398438
vt 1.000000 1.000000
vt 0.375000 1.000000
vt 0.539062 0.562500
vt 0.375000 0.718750
vt 0.320312 0.000000
vt 0.250000 0.507812
vt 0.296875 1.000000
vt 0.187500 0.351562
vt 0.054688 0.250000
vt 1.000000 0.718750
vt 0.835938 0.687500
vt 0.804688 0.695312
vt 0.187500 1.000000
vt 0.187500 0.921875
vt 0.375000 1.000000
vt 0.054688 0.000000
vt 0.187500 0.625000
vt 0.187500 0.625000
vt 0.835938 0.562500
vt 0.765625 0.562500
vt 1.000000 1.000000
vt 1.000000 0.718750
vt 0.125000 0.500000
vt 0.562500 0.312500
vt 0.500000 0.375000
vt 0.000000 1.000000
vt 0.187500 0.921875
vt 0.101562 0.921875
vt 0.125000 0.625000
vt 0.125000 0.781250
vt 0.468750 0.492188
vt 0.375000 0.398438
vt 0.375000 0.562500
vt 0.101562 0.781250
vt 0.468750 0.562500
vt 0.375000 0.554688
vt 0.375000 0.398438
vt 0.078125 1.000000
vt 0.695312 0.796875
vt 0.539062 0.687500
vt 0.679688 0.796875
vt 0.609375 0.562500
vt 0.078125 0.921875
vt 0.562500 0.500000
vt 0.625000 0.562500
vt 0.687500 0.500000
vt 0.625000 0.437500
vt 0.562500 0.562500
vt 0.562500 0.398438
vt 1.000000 1.000000
vt 0.375000 1.000000
vt 0.539062 0.562500
vt 0.375000 0.718750
vn 0.0000 -0.9950 -0.0995
vn -0.3714 -0.9285 0.0000
vn 0.0902 -0.9918 0.0902
vn -0.1414 -0.9899 0.0000
vn -0.7454 0.5963 -0.2981
vn 0.1925 -0.1925 -0.9623
vn -0.6396 -0.6396 0.4264
vn 0.8729 -0.2182 0.4364
vn -0.3904 0.9202 -0.0279
vn 0.0000 0.9487 -0.3162
vn -0.1924 0.9623 -0.1925
vn -0.6470 -0.7548 -0.1078
vn -0.1763 -0.9823 -0.0630
vn 0.0000 -1.0000 0.0000
vn -0.4472 0.8944 0.0000
vn 0.2169 -0.9762 0.0000
vn -0.4813 0.8595 -0.1719
vn -0.4454 0.8909 -0.0891
vn 0.0000 0.0000 -1.0000
vn 0.8944 0.0000 0.4472
vn -0.6882 0.6882 0.2294
vn -0.8321 0.5547 0.0000
vn 0.8131 0.5808 -0.0387
vn 0.0000 1.0000 0.0000
vn -0.2630 0.9204 -0.2893
vn 0.2402 0.9610 0.1373
vn 0.0000 0.0000 1.0000
vn 0.0000 0.7071 -0.7071
vn 0.5774 0.5774 0.5774
vn -0.2090 0.9754 -0.0697
vn -0.9487 0.0000 0.3162
vn 0.3162 0.9487 0.0000
vn 0.5774 -0.5774 0.5774
vn -0.3162 -0.9487 0.0000
vn -0.9156 -0.3924 0.0872
vn -0.5408 0.0000 0.8412
vn -0.1874 0.9816 -0.0357
vn 0.7001 -0.7001 0.1400
vn 0.0000 0.9806 -0.1961
vn 0.1960 0.9801 -0.0327
vn 0.2425 0.9701 0.0000
vn -0.8920 0.4460 0.0743
vn 0.0786 -0.9921 0.0982
vn 0.2804 0.9533 0.1122
vn -0.3158 -0.9474 -0.0526
vn -0.3142 -0.9139 0.2570
vn -0.3910 0.9201 -0.0230
vn 0.8000 0.6000 0.0000
vn -0.8944 -0.4472 0.0000
vn 0.2933 -0.5133 -0.8066
vn -0.2777 0.9604 0.0231
vn 0.3714 -0.9285 0.0000
vn -0.0902 -0.9918 0.0902
vn 0.1414 -0.9899 0.0000
vn 0.7454 0.5963 -0.2981
vn -0.1925 -0.1925 -0.9623
vn 0.6396 -0.6396 0.4264
vn -0.8729 -0.2182 0.4364
vn 0.3904 0.9202 -0.0279
vn 0.1924 0.9623 -0.1925
vn 0.6470 -0.7548 -0.1078
vn 0.1763 -0.9823 -0.0630
vn 0.4472 0.8944 0.0000
vn -0.2169 -0.9762 0.0000
vn 0.4813 0.8595 -0.1719
vn 0.4454 0.8909 -0.0891
vn -0.8944 0.0000 0.4472
vn 0.6882 0.6882 0.2294
vn 0.8321 0.5547 0.0000
vn -0.8131 0.5808 -0.0387
vn 0.2630 0.9204 -0.2893
vn -0.2402 0.9610 0.1373
vn -0.5774 0.5774 0.5774
vn 0.2090 0.9754 -0.0697
vn 0.9487 0.0000 0.3162
vn -0.3162 0.9487 0.0000
vn -0.5774 -0.5774 0.5774
vn 0.3162 -0.9487 0.0000
vn 0.9156 -0.3924 0.0872
vn 0.5408 0.0000 0.8412
vn 0.1874 0.9816 -0.0357
vn -0.7001 -0.7001 0.1400
vn -0.1960 0.9801 -0.0327
vn -0.2425 0.9701 0.0000
vn 0.8920 0.4460 0.0743
vn -0.0786 -0.9921 0.0982
vn -0.2804 0.9533 0.1122
vn 0.3158 -0.9474 -0.0526
vn 0.3142 -0.9139 0.2570
vn 0.3910 0.9201 -0.0230
vn -0.8000 0.6000 0.0000
vn 0.8944 -0.4472 0.0000
vn -0.2933 -0.5133 -0.8066
vn 0.2777 0.9604 0.0231
s off
f 25/1/1 2/2/1 27/3/1
f 31/4/2 3/5/2 29/6/2
f 20/7/3 31/4/3 33/8/3
f 29/6/4 1/9/4 25/1/4
f 11/10/5 38/11/5 37/12/5
f 8/13/6 6/14/6 10/15/6
f 21/16/7 5/17/7 20/7/7
f 22/18/8 33/8/8 57/19/8
f 1/9/9 39/20/9 11/10/9
f 2/21/10 37/12/10 27/22/10
f 2/21/11 11/10/11 37/12/11
f 3/5/12 4/23/12 8/24/12
f 2/2/13 25/1/13 1/9/13
f 6/14/14 18/25/14 19/26/14
f 38/11/15 11/10/15 39/20/15
f 6/14/16 4/27/16 5/28/16
f 11/10/17 2/21/17 1/9/17
f 3/29/18 40/30/18 39/20/18
f 8/31/19 12/32/19 40/33/19
f 42/34/20 22/35/20 57/36/20
f 9/37/21 21/16/21 24/38/21
f 8/24/22 14/39/22 12/40/22
f 16/41/23 13/42/23 17/43/23
f 17/44/24 12/40/24 14/39/24
f 40/30/25 3/29/25 8/24/25
f 17/44/26 42/34/26 52/45/26
f 14/39/21 9/37/21 24/38/21
f 15/46/27 24/47/27 13/42/27
f 14/48/28 16/41/28 17/43/28
f 22/35/29 42/34/29 23/49/29
f 18/25/14 6/14/14 7/50/14
f 10/51/30 18/52/30 7/53/30
f 5/17/31 21/16/31 9/37/31
f 23/49/32 42/34/32 13/54/32
f 21/55/27 22/56/27 23/57/27
f 22/56/27 21/55/27 20/58/27
f 23/49/21 24/38/21 21/16/21
f 33/8/33 22/18/33 20/7/33
f 31/4/34 5/17/34 4/23/34
f 24/59/35 16/41/35 14/60/35
f 31/4/34 20/7/34 5/17/34
f 7/50/36 5/28/36 9/61/36
f 9/62/37 10/51/37 7/53/37
f 19/26/38 10/15/38 6/14/38
f 18/52/39 10/51/39 19/63/39
f 12/40/40 17/44/40 40/30/40
f 40/30/41 17/44/41 52/45/41
f 9/37/42 14/39/42 8/24/42
f 5/28/43 7/50/43 6/14/43
f 42/34/44 17/44/44 13/54/44
f 3/5/45 31/4/45 4/23/45
f 1/9/46 29/6/46 3/5/46
f 39/20/47 1/9/47 3/29/47
f 13/42/48 16/41/48 15/46/48
f 24/38/24 23/49/24 13/54/24
f 16/41/49 24/59/49 15/46/49
f 6/14/50 8/13/50 4/27/50
f 10/51/51 9/62/51 8/64/51
f 25/1/1 27/3/1 28/65/1
f 31/4/52 29/6/52 30/66/52
f 55/67/53 33/8/53 31/4/53
f 29/6/54 25/1/54 26/68/54
f 45/69/55 37/12/55 38/11/55
f 41/70/56 44/71/56 35/72/56
f 56/73/57 55/67/57 34/74/57
f 58/75/58 57/19/58 33/8/58
f 26/68/59 45/69/59 39/20/59
f 28/76/10 27/22/10 37/12/10
f 28/76/60 37/12/60 45/69/60
f 30/66/61 41/77/61 32/78/61
f 28/65/62 26/68/62 25/1/62
f 35/72/14 54/79/14 53/80/14
f 38/11/63 39/20/63 45/69/63
f 35/72/64 34/81/64 32/82/64
f 45/69/65 26/68/65 28/76/65
f 30/83/66 39/20/66 40/30/66
f 41/84/19 40/33/19 46/85/19
f 42/34/67 57/36/67 58/86/67
f 43/87/68 60/88/68 56/73/68
f 41/77/69 46/89/69 48/90/69
f 50/91/70 51/92/70 47/93/70
f 51/94/24 48/90/24 46/89/24
f 40/30/71 41/77/71 30/83/71
f 51/94/72 52/45/72 42/34/72
f 48/90/68 60/88/68 43/87/68
f 49/95/27 47/93/27 60/96/27
f 48/97/28 51/92/28 50/91/28
f 58/86/73 59/98/73 42/34/73
f 53/80/14 36/99/14 35/72/14
f 44/100/74 36/101/74 53/102/74
f 34/74/75 43/87/75 56/73/75
f 59/98/76 47/103/76 42/34/76
f 56/104/27 59/105/27 58/106/27
f 58/106/27 55/107/27 56/104/27
f 59/98/68 56/73/68 60/88/68
f 33/8/77 55/67/77 58/75/77
f 31/4/78 32/78/78 34/74/78
f 60/108/79 48/109/79 50/91/79
f 31/4/78 34/74/78 55/67/78
f 36/99/80 43/110/80 34/81/80
f 43/111/81 36/101/81 44/100/81
f 54/79/82 35/72/82 44/71/82
f 53/102/39 54/112/39 44/100/39
f 46/89/83 40/30/83 51/94/83
f 40/30/84 52/45/84 51/94/84
f 43/87/85 41/77/85 48/90/85
f 34/81/86 35/72/86 36/99/86
f 42/34/87 47/103/87 51/94/87
f 30/66/88 32/78/88 31/4/88
f 26/68/89 30/66/89 29/6/89
f 39/20/90 30/83/90 26/68/90
f 47/93/91 49/95/91 50/91/91
f 60/88/24 47/103/24 59/98/24
f 50/91/92 49/95/92 60/108/92
f 35/72/93 32/82/93 41/70/93
f 44/100/94 41/113/94 43/111/94
